<svg width="40" height="40" viewBox="0 0 40 40" fill="none" xmlns="http://www.w3.org/2000/svg">
<path d="M20 22.25C21.2426 22.25 22.25 21.2426 22.25 20C22.25 18.7574 21.2426 17.75 20 17.75C18.7574 17.75 17.75 18.7574 17.75 20C17.75 21.2426 18.7574 22.25 20 22.25Z" fill="white"/>
<path d="M27.5 22.25C28.7426 22.25 29.75 21.2426 29.75 20C29.75 18.7574 28.7426 17.75 27.5 17.75C26.2574 17.75 25.25 18.7574 25.25 20C25.25 21.2426 26.2574 22.25 27.5 22.25Z" fill="white"/>
<path d="M12.5 22.25C13.7426 22.25 14.75 21.2426 14.75 20C14.75 18.7574 13.7426 17.75 12.5 17.75C11.2574 17.75 10.25 18.7574 10.25 20C10.25 21.2426 11.2574 22.25 12.5 22.25Z" fill="white"/>
</svg>
