<svg width="18" height="18" viewBox="0 0 18 18" fill="none" xmlns="http://www.w3.org/2000/svg">
<mask id="mask0_1032_6471" style="mask-type:alpha" maskUnits="userSpaceOnUse" x="0" y="0" width="18" height="18">
<rect width="18" height="18" fill="#D9D9D9"/>
</mask>
<g mask="url(#mask0_1032_6471)">
<path d="M9 15.75C7.125 15.75 5.53125 15.0938 4.21875 13.7812C2.90625 12.4688 2.25 10.875 2.25 9C2.25 7.125 2.90625 5.53125 4.21875 4.21875C5.53125 2.90625 7.125 2.25 9 2.25C9.175 2.25 9.34687 2.25625 9.51562 2.26875C9.68438 2.28125 9.85 2.3 10.0125 2.325C9.5 2.6875 9.09063 3.15938 8.78438 3.74063C8.47813 4.32188 8.325 4.95 8.325 5.625C8.325 6.75 8.71875 7.70625 9.50625 8.49375C10.2938 9.28125 11.25 9.675 12.375 9.675C13.0625 9.675 13.6937 9.52188 14.2687 9.21563C14.8437 8.90938 15.3125 8.5 15.675 7.9875C15.7 8.15 15.7188 8.31562 15.7313 8.48438C15.7438 8.65313 15.75 8.825 15.75 9C15.75 10.875 15.0938 12.4688 13.7812 13.7812C12.4688 15.0938 10.875 15.75 9 15.75Z" fill="white"/>
</g>
</svg>
