<svg width="18" height="18" viewBox="0 0 18 18" fill="none" xmlns="http://www.w3.org/2000/svg">
<path fill-rule="evenodd" clip-rule="evenodd" d="M13.2197 14.2803C13.5126 14.5732 13.9874 14.5732 14.2803 14.2803C14.5732 13.9874 14.5732 13.5126 14.2803 13.2197L9.81066 8.75L14.2803 4.28033C14.5732 3.98744 14.5732 3.51256 14.2803 3.21967C13.9874 2.92678 13.5126 2.92678 13.2197 3.21967L8.75 7.68934L4.28033 3.21967C3.98744 2.92678 3.51256 2.92678 3.21967 3.21967C2.92678 3.51256 2.92678 3.98744 3.21967 4.28033L7.68934 8.75L3.21967 13.2197C2.92678 13.5126 2.92678 13.9874 3.21967 14.2803C3.51256 14.5732 3.98744 14.5732 4.28033 14.2803L8.75 9.81066L13.2197 14.2803Z" fill="#E1E1E2"/>
</svg>
