<svg width="32" height="32" viewBox="0 0 32 32" fill="none" xmlns="http://www.w3.org/2000/svg">
<g clip-path="url(#clip0_1026_6105)">
<path d="M0.01828 10.7333C0.01828 6.93673 0.01828 5.03843 0.768857 3.5935C1.40136 2.37588 2.39416 1.38308 3.61178 0.750577C5.05671 0 6.95501 0 10.7516 0H21.2849C25.0815 0 26.9799 0 28.4248 0.750577C29.6424 1.38308 30.6352 2.37588 31.2677 3.5935C32.0183 5.03843 32.0183 6.93673 32.0183 10.7333V21.2667C32.0183 25.0633 32.0183 26.9616 31.2677 28.4065C30.6352 29.6241 29.6424 30.6169 28.4248 31.2494C26.9799 32 25.0815 32 21.2849 32H10.7516C6.95501 32 5.05671 32 3.61178 31.2494C2.39416 30.6169 1.40136 29.6241 0.768857 28.4065C0.01828 26.9616 0.01828 25.0633 0.01828 21.2667V10.7333Z" fill="url(#paint0_radial_1026_6105)"/>
<path d="M0.01828 10.7333C0.01828 6.93673 0.01828 5.03843 0.768857 3.5935C1.40136 2.37588 2.39416 1.38308 3.61178 0.750577C5.05671 0 6.95501 0 10.7516 0H21.2849C25.0815 0 26.9799 0 28.4248 0.750577C29.6424 1.38308 30.6352 2.37588 31.2677 3.5935C32.0183 5.03843 32.0183 6.93673 32.0183 10.7333V21.2667C32.0183 25.0633 32.0183 26.9616 31.2677 28.4065C30.6352 29.6241 29.6424 30.6169 28.4248 31.2494C26.9799 32 25.0815 32 21.2849 32H10.7516C6.95501 32 5.05671 32 3.61178 31.2494C2.39416 30.6169 1.40136 29.6241 0.768857 28.4065C0.01828 26.9616 0.01828 25.0633 0.01828 21.2667V10.7333Z" fill="url(#paint1_radial_1026_6105)"/>
<path d="M16.0005 4.36377C12.8403 4.36377 12.4437 4.37759 11.2026 4.43407C9.96381 4.4908 9.11826 4.68692 8.3784 4.97468C7.61309 5.27189 6.9639 5.66947 6.31713 6.3165C5.66988 6.96328 5.27232 7.6125 4.97414 8.37759C4.68567 9.11771 4.48931 9.96353 4.43355 11.2018C4.37804 12.443 4.36349 12.8399 4.36349 16.0001C4.36349 19.1604 4.37756 19.5558 4.4338 20.797C4.49076 22.0358 4.68688 22.8813 4.97439 23.6212C5.27183 24.3866 5.66939 25.0358 6.31641 25.6826C6.96293 26.3298 7.61212 26.7284 8.37695 27.0256C9.11729 27.3133 9.96308 27.5095 11.2016 27.5662C12.4428 27.6227 12.8391 27.6365 15.999 27.6365C19.1594 27.6365 19.5548 27.6227 20.796 27.5662C22.0347 27.5095 22.8812 27.3133 23.6216 27.0256C24.3866 26.7284 25.0349 26.3298 25.6814 25.6826C26.3286 25.0358 26.7262 24.3866 27.0244 23.6215C27.3104 22.8813 27.5068 22.0355 27.565 20.7972C27.6207 19.556 27.6353 19.1604 27.6353 16.0001C27.6353 12.8399 27.6207 12.4433 27.565 11.2021C27.5068 9.96328 27.3104 9.11771 27.0244 8.37783C26.7262 7.6125 26.3286 6.96328 25.6814 6.3165C25.0341 5.66922 24.3869 5.27165 23.6209 4.97468C22.8791 4.68692 22.033 4.4908 20.7943 4.43407C19.5531 4.37759 19.158 4.36377 15.9968 4.36377H16.0005ZM14.9566 6.46074C15.2664 6.46025 15.6121 6.46074 16.0005 6.46074C19.1073 6.46074 19.4755 6.47189 20.7024 6.52765C21.8369 6.57953 22.4526 6.7691 22.8628 6.92838C23.4058 7.13928 23.793 7.39141 24.2 7.79868C24.6072 8.20595 24.8594 8.59383 25.0707 9.13686C25.23 9.54656 25.4198 10.1623 25.4715 11.2969C25.5272 12.5235 25.5393 12.892 25.5393 15.9975C25.5393 19.1029 25.5272 19.4714 25.4715 20.6981C25.4196 21.8326 25.23 22.4484 25.0707 22.8581C24.8598 23.4011 24.6072 23.7878 24.2 24.1948C23.7927 24.6021 23.4061 24.8542 22.8628 25.0651C22.4531 25.2251 21.8369 25.4142 20.7024 25.4661C19.4758 25.5218 19.1073 25.534 16.0005 25.534C12.8934 25.534 12.5252 25.5218 11.2986 25.4661C10.164 25.4137 9.54831 25.2241 9.1379 25.0649C8.59488 24.854 8.20701 24.6018 7.79975 24.1946C7.39249 23.7873 7.14038 23.4004 6.92899 22.8571C6.76973 22.4474 6.57991 21.8316 6.52828 20.6971C6.47252 19.4704 6.46137 19.102 6.46137 15.9946C6.46137 12.8872 6.47252 12.5206 6.52828 11.294C6.58016 10.1594 6.76973 9.54365 6.92899 9.13347C7.1399 8.59044 7.39249 8.20256 7.79975 7.79528C8.20701 7.38801 8.59488 7.13589 9.1379 6.9245C9.54807 6.7645 10.164 6.57541 11.2986 6.52328C12.372 6.4748 12.788 6.46025 14.9566 6.45783V6.46074ZM22.2117 8.39286C21.4408 8.39286 20.8154 9.01759 20.8154 9.78874C20.8154 10.5596 21.4408 11.1851 22.2117 11.1851C22.9826 11.1851 23.608 10.5596 23.608 9.78874C23.608 9.01783 22.9826 8.39238 22.2117 8.39238V8.39286ZM16.0005 10.0244C12.7005 10.0244 10.0249 12.7 10.0249 16.0001C10.0249 19.3003 12.7005 21.9747 16.0005 21.9747C19.3005 21.9747 21.9751 19.3003 21.9751 16.0001C21.9751 12.7 19.3003 10.0244 16.0002 10.0244H16.0005ZM16.0005 12.1213C18.1425 12.1213 19.8791 13.8578 19.8791 16.0001C19.8791 18.1422 18.1425 19.8789 16.0005 19.8789C13.8582 19.8789 12.1218 18.1422 12.1218 16.0001C12.1218 13.8578 13.8582 12.1213 16.0005 12.1213V12.1213Z" fill="white"/>
</g>
<defs>
<radialGradient id="paint0_radial_1026_6105" cx="0" cy="0" r="1" gradientUnits="userSpaceOnUse" gradientTransform="translate(8.51832 34.4647) rotate(-90) scale(31.7144 29.4969)">
<stop stop-color="#FFDD55"/>
<stop offset="0.1" stop-color="#FFDD55"/>
<stop offset="0.5" stop-color="#FF543E"/>
<stop offset="1" stop-color="#C837AB"/>
</radialGradient>
<radialGradient id="paint1_radial_1026_6105" cx="0" cy="0" r="1" gradientUnits="userSpaceOnUse" gradientTransform="translate(-5.34189 2.30523) rotate(78.6806) scale(14.1765 58.4359)">
<stop stop-color="#3771C8"/>
<stop offset="0.128" stop-color="#3771C8"/>
<stop offset="1" stop-color="#6600FF" stop-opacity="0"/>
</radialGradient>
<clipPath id="clip0_1026_6105">
<rect width="32" height="32" fill="white"/>
</clipPath>
</defs>
</svg>
