<svg width="24" height="24" viewBox="0 0 24 24" fill="none" xmlns="http://www.w3.org/2000/svg">
<path d="M2 10C2 8.53333 2.29583 7.14583 2.8875 5.8375C3.47917 4.52917 4.325 3.4 5.425 2.45L6.85 3.85C5.95 4.63333 5.25 5.55417 4.75 6.6125C4.25 7.67083 4 8.8 4 10H2ZM20 10C20 8.8 19.75 7.67083 19.25 6.6125C18.75 5.55417 18.05 4.63333 17.15 3.85L18.575 2.45C19.675 3.4 20.5208 4.52917 21.1125 5.8375C21.7042 7.14583 22 8.53333 22 10H20ZM4 19V17H6V10C6 8.61667 6.41667 7.3875 7.25 6.3125C8.08333 5.2375 9.16667 4.53333 10.5 4.2V3.5C10.5 3.08333 10.6458 2.72917 10.9375 2.4375C11.2292 2.14583 11.5833 2 12 2C12.4167 2 12.7708 2.14583 13.0625 2.4375C13.3542 2.72917 13.5 3.08333 13.5 3.5V4.2C14.8333 4.53333 15.9167 5.2375 16.75 6.3125C17.5833 7.3875 18 8.61667 18 10V17H20V19H4ZM12 22C11.45 22 10.9792 21.8042 10.5875 21.4125C10.1958 21.0208 10 20.55 10 20H14C14 20.55 13.8042 21.0208 13.4125 21.4125C13.0208 21.8042 12.55 22 12 22ZM8 17H16V10C16 8.9 15.6083 7.95833 14.825 7.175C14.0417 6.39167 13.1 6 12 6C10.9 6 9.95833 6.39167 9.175 7.175C8.39167 7.95833 8 8.9 8 10V17Z" fill="black"/>
</svg>
