<svg width="40" height="40" viewBox="0 0 40 40" fill="none" xmlns="http://www.w3.org/2000/svg">
<mask id="mask0_1026_6039" style="mask-type:alpha" maskUnits="userSpaceOnUse" x="7" y="8" width="25" height="24">
<rect x="7.85272" y="8" width="24" height="24" rx="2" fill="white"/>
</mask>
<g mask="url(#mask0_1026_6039)">
<path d="M12.8527 19C11.7482 19 10.8527 18.1046 10.8527 17V13C10.8527 11.8954 11.7482 11 12.8527 11H16.8527C17.9573 11 18.8527 11.8954 18.8527 13V17C18.8527 18.1046 17.9573 19 16.8527 19H12.8527ZM12.8527 29C11.7482 29 10.8527 28.1046 10.8527 27V23C10.8527 21.8954 11.7482 21 12.8527 21H16.8527C17.9573 21 18.8527 21.8954 18.8527 23V27C18.8527 28.1046 17.9573 29 16.8527 29H12.8527ZM22.8527 19C21.7482 19 20.8527 18.1046 20.8527 17V13C20.8527 11.8954 21.7482 11 22.8527 11H26.8527C27.9573 11 28.8527 11.8954 28.8527 13V17C28.8527 18.1046 27.9573 19 26.8527 19H22.8527ZM22.8527 29C21.7482 29 20.8527 28.1046 20.8527 27V23C20.8527 21.8954 21.7482 21 22.8527 21H26.8527C27.9573 21 28.8527 21.8954 28.8527 23V27C28.8527 28.1046 27.9573 29 26.8527 29H22.8527Z" fill="white"/>
</g>
</svg>
