<svg width="24" height="24" viewBox="0 0 24 24" fill="none" xmlns="http://www.w3.org/2000/svg">
<mask id="mask0_1032_6624" style="mask-type:alpha" maskUnits="userSpaceOnUse" x="0" y="0" width="24" height="24">
<rect width="24" height="24" fill="#D9D9D9"/>
</mask>
<g mask="url(#mask0_1032_6624)">
<path d="M11 22.9498V20.9498C8.91665 20.7165 7.12915 19.854 5.63749 18.3623C4.14582 16.8706 3.28332 15.0831 3.04999 12.9998H1.04999V10.9998H3.04999C3.28332 8.91647 4.14582 7.12897 5.63749 5.6373C7.12915 4.14564 8.91665 3.28314 11 3.0498V1.0498H13V3.0498C15.0833 3.28314 16.8708 4.14564 18.3625 5.6373C19.8542 7.12897 20.7167 8.91647 20.95 10.9998H22.95V12.9998H20.95C20.7167 15.0831 19.8542 16.8706 18.3625 18.3623C16.8708 19.854 15.0833 20.7165 13 20.9498V22.9498H11ZM12 18.9998C13.9333 18.9998 15.5833 18.3165 16.95 16.9498C18.3167 15.5831 19 13.9331 19 11.9998C19 10.0665 18.3167 8.41647 16.95 7.0498C15.5833 5.68314 13.9333 4.9998 12 4.9998C10.0667 4.9998 8.41665 5.68314 7.04999 7.0498C5.68332 8.41647 4.99999 10.0665 4.99999 11.9998C4.99999 13.9331 5.68332 15.5831 7.04999 16.9498C8.41665 18.3165 10.0667 18.9998 12 18.9998ZM12 15.9998C10.9 15.9998 9.95832 15.6081 9.17499 14.8248C8.39165 14.0415 7.99999 13.0998 7.99999 11.9998C7.99999 10.8998 8.39165 9.95814 9.17499 9.1748C9.95832 8.39147 10.9 7.9998 12 7.9998C13.1 7.9998 14.0417 8.39147 14.825 9.1748C15.6083 9.95814 16 10.8998 16 11.9998C16 13.0998 15.6083 14.0415 14.825 14.8248C14.0417 15.6081 13.1 15.9998 12 15.9998Z" fill="#EE8332"/>
</g>
</svg>
