<svg width="18" height="18" viewBox="0 0 18 18" fill="none" xmlns="http://www.w3.org/2000/svg">
<mask id="mask0_1032_6474" style="mask-type:alpha" maskUnits="userSpaceOnUse" x="0" y="0" width="18" height="18">
<rect width="18" height="18" fill="#D9D9D9"/>
</mask>
<g mask="url(#mask0_1032_6474)">
<path d="M9 12.75C7.9625 12.75 7.07813 12.3844 6.34688 11.6531C5.61563 10.9219 5.25 10.0375 5.25 9C5.25 7.9625 5.61563 7.07813 6.34688 6.34688C7.07813 5.61563 7.9625 5.25 9 5.25C10.0375 5.25 10.9219 5.61563 11.6531 6.34688C12.3844 7.07813 12.75 7.9625 12.75 9C12.75 10.0375 12.3844 10.9219 11.6531 11.6531C10.9219 12.3844 10.0375 12.75 9 12.75ZM1.5 9.75C1.2875 9.75 1.10937 9.67813 0.965625 9.53438C0.821875 9.39063 0.75 9.2125 0.75 9C0.75 8.7875 0.821875 8.60938 0.965625 8.46563C1.10937 8.32188 1.2875 8.25 1.5 8.25H3C3.2125 8.25 3.39063 8.32188 3.53438 8.46563C3.67813 8.60938 3.75 8.7875 3.75 9C3.75 9.2125 3.67813 9.39063 3.53438 9.53438C3.39063 9.67813 3.2125 9.75 3 9.75H1.5ZM15 9.75C14.7875 9.75 14.6094 9.67813 14.4656 9.53438C14.3219 9.39063 14.25 9.2125 14.25 9C14.25 8.7875 14.3219 8.60938 14.4656 8.46563C14.6094 8.32188 14.7875 8.25 15 8.25H16.5C16.7125 8.25 16.8906 8.32188 17.0344 8.46563C17.1781 8.60938 17.25 8.7875 17.25 9C17.25 9.2125 17.1781 9.39063 17.0344 9.53438C16.8906 9.67813 16.7125 9.75 16.5 9.75H15ZM9 3.75C8.7875 3.75 8.60938 3.67813 8.46563 3.53438C8.32188 3.39063 8.25 3.2125 8.25 3V1.5C8.25 1.2875 8.32188 1.10937 8.46563 0.965625C8.60938 0.821875 8.7875 0.75 9 0.75C9.2125 0.75 9.39063 0.821875 9.53438 0.965625C9.67813 1.10937 9.75 1.2875 9.75 1.5V3C9.75 3.2125 9.67813 3.39063 9.53438 3.53438C9.39063 3.67813 9.2125 3.75 9 3.75ZM9 17.25C8.7875 17.25 8.60938 17.1781 8.46563 17.0344C8.32188 16.8906 8.25 16.7125 8.25 16.5V15C8.25 14.7875 8.32188 14.6094 8.46563 14.4656C8.60938 14.3219 8.7875 14.25 9 14.25C9.2125 14.25 9.39063 14.3219 9.53438 14.4656C9.67813 14.6094 9.75 14.7875 9.75 15V16.5C9.75 16.7125 9.67813 16.8906 9.53438 17.0344C9.39063 17.1781 9.2125 17.25 9 17.25ZM4.2375 5.2875L3.43125 4.5C3.28125 4.3625 3.20938 4.1875 3.21563 3.975C3.22188 3.7625 3.29375 3.58125 3.43125 3.43125C3.58125 3.28125 3.7625 3.20625 3.975 3.20625C4.1875 3.20625 4.3625 3.28125 4.5 3.43125L5.2875 4.2375C5.425 4.3875 5.49375 4.5625 5.49375 4.7625C5.49375 4.9625 5.425 5.1375 5.2875 5.2875C5.15 5.4375 4.97813 5.50938 4.77188 5.50313C4.56563 5.49688 4.3875 5.425 4.2375 5.2875ZM13.5 14.5688L12.7125 13.7625C12.575 13.6125 12.5063 13.4344 12.5063 13.2281C12.5063 13.0219 12.575 12.85 12.7125 12.7125C12.85 12.5625 13.0219 12.4906 13.2281 12.4969C13.4344 12.5031 13.6125 12.575 13.7625 12.7125L14.5688 13.5C14.7188 13.6375 14.7906 13.8125 14.7844 14.025C14.7781 14.2375 14.7063 14.4188 14.5688 14.5688C14.4188 14.7188 14.2375 14.7938 14.025 14.7938C13.8125 14.7938 13.6375 14.7188 13.5 14.5688ZM12.7125 5.2875C12.5625 5.15 12.4906 4.97813 12.4969 4.77188C12.5031 4.56563 12.575 4.3875 12.7125 4.2375L13.5 3.43125C13.6375 3.28125 13.8125 3.20938 14.025 3.21563C14.2375 3.22188 14.4188 3.29375 14.5688 3.43125C14.7188 3.58125 14.7938 3.7625 14.7938 3.975C14.7938 4.1875 14.7188 4.3625 14.5688 4.5L13.7625 5.2875C13.6125 5.425 13.4375 5.49375 13.2375 5.49375C13.0375 5.49375 12.8625 5.425 12.7125 5.2875ZM3.43125 14.5688C3.28125 14.4188 3.20625 14.2375 3.20625 14.025C3.20625 13.8125 3.28125 13.6375 3.43125 13.5L4.2375 12.7125C4.3875 12.575 4.56563 12.5063 4.77188 12.5063C4.97813 12.5063 5.15 12.575 5.2875 12.7125C5.4375 12.85 5.50938 13.0219 5.50313 13.2281C5.49688 13.4344 5.425 13.6125 5.2875 13.7625L4.5 14.5688C4.3625 14.7188 4.1875 14.7906 3.975 14.7844C3.7625 14.7781 3.58125 14.7063 3.43125 14.5688Z" fill="#1A1918"/>
</g>
</svg>
