<svg width="40" height="40" viewBox="0 0 40 40" fill="none" xmlns="http://www.w3.org/2000/svg">
<mask id="mask0_1032_6572" style="mask-type:alpha" maskUnits="userSpaceOnUse" x="8" y="8" width="24" height="24">
<rect x="8" y="8" width="24" height="24" fill="#D9D9D9"/>
</mask>
<g mask="url(#mask0_1032_6572)">
<path d="M12 27C11.4477 27 11 26.5523 11 26V26C11 25.4477 11.4477 25 12 25H28C28.5523 25 29 25.4477 29 26V26C29 26.5523 28.5523 27 28 27H12ZM12 23C11.4477 23 11 22.5523 11 22V22C11 21.4477 11.4477 21 12 21H28C28.5523 21 29 21.4477 29 22V22C29 22.5523 28.5523 23 28 23H12ZM12 19C11.4477 19 11 18.5523 11 18V18C11 17.4477 11.4477 17 12 17H28C28.5523 17 29 17.4477 29 18V18C29 18.5523 28.5523 19 28 19H12ZM12 15C11.4477 15 11 14.5523 11 14V14C11 13.4477 11.4477 13 12 13H28C28.5523 13 29 13.4477 29 14V14C29 14.5523 28.5523 15 28 15H12Z" fill="black"/>
</g>
</svg>
