<svg width="24" height="24" viewBox="0 0 24 24" fill="none" xmlns="http://www.w3.org/2000/svg">
<mask id="mask0_1032_6509" style="mask-type:alpha" maskUnits="userSpaceOnUse" x="0" y="0" width="24" height="24">
<rect width="24" height="24" fill="#D9D9D9"/>
</mask>
<g mask="url(#mask0_1032_6509)">
<path d="M17.1 14.2748L15.875 13.0498C16.2417 12.6165 16.5208 12.1415 16.7125 11.6248C16.9042 11.1081 17 10.5665 17 9.99981C17 9.33314 16.8667 8.69981 16.6 8.09981C16.3333 7.49981 15.9667 6.96647 15.5 6.4998L16.7 5.2998C17.3333 5.93314 17.825 6.64981 18.175 7.44981C18.525 8.24981 18.7 9.09981 18.7 9.99981C18.7 10.7998 18.5583 11.5623 18.275 12.2873C17.9917 13.0123 17.6 13.6748 17.1 14.2748ZM14.125 11.2998L10.7 7.8748C10.9 7.75814 11.1083 7.66647 11.325 7.5998C11.5417 7.53314 11.7667 7.4998 12 7.4998C12.7 7.4998 13.2917 7.74147 13.775 8.22481C14.2583 8.70814 14.5 9.29981 14.5 9.99981C14.5 10.2331 14.4667 10.4581 14.4 10.6748C14.3333 10.8915 14.2417 11.0998 14.125 11.2998ZM19.5 16.6498L18.3 15.4498C18.9667 14.6998 19.4667 13.854 19.8 12.9123C20.1333 11.9706 20.3 10.9998 20.3 9.99981C20.3 8.89981 20.0958 7.83731 19.6875 6.8123C19.2792 5.7873 18.6833 4.88314 17.9 4.0998L19.1 2.8998C20.0167 3.86647 20.7292 4.95814 21.2375 6.1748C21.7458 7.39147 22 8.66647 22 9.99981C22 11.2331 21.7875 12.4206 21.3625 13.5623C20.9375 14.704 20.3167 15.7331 19.5 16.6498ZM19.775 22.5998L13 15.8248V20.9998H11V13.8248L7 9.84981V9.99981C7 10.6665 7.13333 11.2998 7.4 11.8998C7.66667 12.4998 8.03333 13.0331 8.5 13.4998L7.3 14.6998C6.66667 14.0665 6.175 13.3498 5.825 12.5498C5.475 11.7498 5.3 10.8998 5.3 9.99981C5.3 9.71647 5.31667 9.44147 5.35 9.17481C5.38333 8.90814 5.44167 8.63314 5.525 8.34981L4.25 7.07481C4.06667 7.55814 3.92917 8.04147 3.8375 8.52481C3.74583 9.00814 3.7 9.49981 3.7 9.99981C3.7 11.0998 3.90417 12.1623 4.3125 13.1873C4.72083 14.2123 5.31667 15.1165 6.1 15.8998L4.9 17.0998C3.98333 16.1331 3.27083 15.0415 2.7625 13.8248C2.25417 12.6081 2 11.3331 2 9.99981C2 9.26647 2.07917 8.54564 2.2375 7.83731C2.39583 7.12897 2.63333 6.44147 2.95 5.77481L1.4 4.2248L2.8 2.7998L21.2 21.1998L19.775 22.5998Z" fill="black"/>
</g>
</svg>
